<svg xmlns="http://www.w3.org/2000/svg" viewBox="0 0 16 16"><path d="M13.65 5.63c-.12 0-.22.1-.2.2 0 .1.08.2.17.19.1 0 .2-.1.2-.22s-.06-.17-.17-.17zM1.85 6.66c-.05 0-.1 0-.16.04a.33.33 0 0 0 .01.48c.08.07.2.07.28 0 .1-.1.13-.23.07-.4-.04-.1-.1-.12-.2-.12z"/><path d="M13.7 6.48l.3-.11c.04-.02.06-.05.06-.1l.1-1.32c0-.07 0-.08-.07-.06l-.98.3c-.1.04-.1.04-.15-.06-.17-.38-.3-.77-.44-1.15a.29.29 0 0 1 0-.23c.06-.14.02-.28.02-.41v-.02c-.03-.38-.1-.76-.19-1.13-.08-.32-.2-.63-.36-.92-.16-.31-.34-.62-.53-.92a.73.73 0 0 0-.32-.31A.5.5 0 0 0 11 0c-.06 0-.1.02-.14.07a.3.3 0 0 0-.05.31c.14.3.26.6.38.9l.03.06c-.03 0-.04-.02-.05-.03-.2-.23-.47-.4-.72-.59C10.1.48 9.71.3 9.34.1a.42.42 0 0 0-.15-.06L8.91.01c-.15-.01-.26.07-.26.22 0 .07-.04.1-.1.1-.06 0-.14.08-.14.14a.5.5 0 0 0 .16.45c.32.3.64.6.95.92l.03.03-.04-.01-.14-.1-.65-.42a.68.68 0 0 0-.33-.12.35.35 0 0 0-.29.1.2.2 0 0 0-.06.18c.01.1.08.18.16.23.48.33.9.74 1.26 1.2.03.04.02.05-.03.05-.3 0-.6.08-.9.14-.12.03-.24.07-.29.2-.04.16-.07.24.12.3.4.1.8.24 1.17.42.33.3.72.52 1.15.64l.1.04c.04 0 .06.03.07.07.02.13.1.2.22.24l.04.02c.04 0 .06.04.07.08l.16.52c.02.05 0 .07-.05.08l-.8.25c-.1.03-.1.03-.06.1l.66 1.2c.1.17.1.17.26.08.02 0 .05-.04.06-.01.02.03.04.06.02.1-.08.09-.14.2-.2.3-.03.03-.03.05 0 .08l.21.36.02.04-.1.27c-.04-.2-.12-.36-.22-.51-.13-.21-.3-.4-.45-.6l-.08-.07c-.15-.15-.33-.24-.5-.35-.33-.16-.7-.19-1.06-.1-.06.03-.1 0-.13-.03-.06-.1-.12-.2-.2-.27a2.14 2.14 0 0 0-1.68-.53c-.3.02-.58.05-.83.2-.05.04-.1.05-.16.08-.26.15-.52.28-.74.5-.22.22-.45.44-.65.68a5.43 5.43 0 0 0-.62.98l-.08-.53c0-.03.01-.03.03-.03l.2.02c.04 0 .07 0 .08-.06l.05-.22c.06-.3.15-.57.22-.85.01-.05 0-.07-.05-.1l-.83-.2c-.05 0-.08-.02-.06-.08.06-.22.1-.44.17-.65l.04-.07c.08-.05.13-.12.12-.21 0-.08.03-.13.1-.16l.4-.2a.6.6 0 0 0 .22-.25c.24-.44.43-.9.71-1.31l.08-.11c.18-.2.35-.4.56-.57.06-.05.08-.12.08-.2 0-.1-.05-.16-.1-.23-.06-.06-.12-.11-.2-.1l-.08-.01c.02-.03.04-.04.06-.05l.74-.48.9-.57c.03-.03.05-.05 0-.08l-.02-.03c-.06-.08-.06-.08-.15-.03l-2.5 1.56c-.07.04-.07.04-.1-.04-.09-.2-.13-.4-.2-.6 0-.03 0-.06.04-.1.2-.15.4-.34.6-.52a.44.44 0 0 0 .13-.27c.01-.12-.07-.2-.18-.14l-.16.07c-.5.27-1.02.46-1.56.62-.03 0-.06.02-.08-.02-.06-.06-.14-.1-.2-.15a.05.05 0 0 0-.05 0c-.07 0-.15.03-.2.1-.1.17-.25.32-.36.5-.12.2-.24.4-.38.6-.03.03-.04.03-.06 0l-.46-.83c-.05-.08-.1-.17-.17-.24a.26.26 0 0 0-.25-.11c-.02 0-.04 0-.05.03 0 .08-.05.16-.04.24.03.2.06.4.11.58.08.34.18.66.28 1l.3.95c.01.03.03.05 0 .08-.06.02-.14.04-.14.09 0 .05.03.1.05.16.03.05.03.1.07.13.04.02.08-.03.11-.06.04-.02.05-.01.07.02l.27.64a.1.1 0 0 1 0 .1 3 3 0 0 0-.13.52c0 .05-.03.05-.07.04l-.6-.15c-.1-.02-.1-.02-.1.07l-.14 1.45c0 .04 0 .06.04.07.15 0 .28.04.42.06.03 0 .05 0 .05.04l-.1.5c0 .03 0 .06.03.1l.14.2c.04.04.06.1.03.14a.15.15 0 0 0-.02.1c0 .3 0 .6.02.9v.44l.05 1.17c0 .2-.03.37-.02.56 0 .05.01.08.06.1l.35.11c.06.02.1.06.13.12l.03.15c0 .06.01.1.06.12l.53.4 1.42 1.04c.04.03.05.05.03.1l-.07.14c-.02.05 0 .07.03.1l.17.14c.04.04.05.1.03.15-.02.06-1.74-.18-1.93-.18-.06 0-.1.07-.03.11.3.18.68.4 1.01.5.03.01.05.03.08 0-.1-.07-.67-.5-.53-.49.87.07 2.03.21 2.75.7.04.03.06.05.05.1.01 0 .02.02.01.03 0 0-.03 0-.04-.02-1.07-.1-2.12-.1-3.2.02-.1.01.02.1.1.1h.53c1.76.04 3.4.59 5.14.74.16-.12.3-.26.44-.4.14-.15.3-.27.44-.4.01 0 .03-.03.06-.02l.4.16-.78.48-.04.01a.59.59 0 0 0-.25.15c.4 0 .32.08.73-.21l.03-.02a9.53 9.53 0 0 1 1.8-.78c.75-.26 1.52-.46 2.3-.66h-.21a3.7 3.7 0 0 0-.72.11h-.03c.05-.04.18-.19.22-.18h.02c.01-.04.03-.05.05-.05a.5.5 0 0 1 .26-.2c.12 0 .23-.14.35-.19a2.3 2.3 0 0 0-.52.1c-.36.14-.73.24-1.07.4-.56.23-1.11.49-1.65.77l-.04-.37c0-.02 0-.03.03-.04.46-.24.92-.48 1.4-.68l1.17-.5h.01v.01c-.1.15-.2.3-.27.48h.04l.25-.27a3.7 3.7 0 0 1 .53-.5c0-.02-.03 0-.05 0l-.53.1c-.06.02-.06 0-.06-.04l.02-.43a.4.4 0 0 1 .05-.18l.21-.49c.06-.22.1-.45.13-.68.02-.2.1-.42.13-.63.05-.27.1-.54.2-.8l.26-.7c.13-.3.3-.6.37-.93.02-.1.05-.22 0-.33-.03-.06-.04-.12-.06-.2a.28.28 0 0 1 0-.13c.03-.18.04-.36-.05-.52-.03-.05 0-.08.03-.1.06-.07.06-.1 0-.17l-.19-.24-.17-.2c-.04-.01-.03-.03.01-.04l.01-.01zm-2.37-1.6c0-.05-.04-.08-.09-.07-.06.02-.1 0-.13-.07-.04-.1-.08-.2-.15-.26-.08-.05-.2-.06-.3-.08l-.22-.05c-.17-.03-.3-.1-.45-.2a9.76 9.76 0 0 0-.67-.46c-.08 0-.15-.02-.22-.04l-.6-.12c-.06-.01-.07-.05-.07-.08 0-.04 0-.08.05-.1.06-.05.14-.05.2-.06.33-.05.66-.1.98-.1.08 0 .16.03.23.05.05 0 .08 0 .12-.02l.47-.3c.03-.02.07-.03.05-.08v-.01l-.04-.01h-.04a.84.84 0 0 0-.48.15c-.06.03-.2 0-.23-.04-.25-.38-.6-.65-.93-.94l-.45-.38c-.04-.03-.06-.1-.03-.14.04-.06.08-.03.12-.01.14.05.27.12.4.2.4.3.83.55 1.27.8h.04c.06.04.1 0 .1-.06a.2.2 0 0 0-.06-.1 31.6 31.6 0 0 0-1.09-1.22L8.86.85a.62.62 0 0 1-.16-.2.12.12 0 0 1 .02-.14c.02-.04.05-.04.1-.02a2 2 0 0 1 .34.21l.6.44.57.44.05.04.12.12.05.04c.04.03.08.05.12 0l.02-.03v-.02a.12.12 0 0 0-.03-.06l-.13-.13a21.7 21.7 0 0 0-1-.83C9.4.6 9.24.54 9.1.45 9.04.42 9.01.38 8.97.34a.1.1 0 0 1-.02-.11c.02-.04.06-.04.1-.04a5.6 5.6 0 0 1 1.71.99c.08.06.14.15.2.24.03.03.01.06 0 .09l-.07.04c-.03 0-.06.03-.05.06 0 .03.04.04.07.04a.2.2 0 0 0 .11-.01c.13-.05.23.04.3.12.03.02.04.07.07.05.04-.01.05-.05.05-.1 0-.1-.04-.21-.07-.32-.06-.27-.19-.52-.3-.78l-.1-.26c-.03-.05 0-.1.03-.13.02-.03.06 0 .1 0 .1.05.16.14.21.25l.2.31c.1.19.23.36.31.56.12.28.28.55.35.85.06.27.15.53.18.8.02.1 0 .2 0 .3.03.2 0 .4-.08.59a.2.2 0 0 0 0 .15c.2.39.34.79.5 1.19.01.05 0 .07-.05.09l-1.05.3c-.05.03-.07 0-.08-.03l-.26-.7zm-.48 6.85h-.13c-.03 0-.05.02-.06.05l-.04.08v.01c-.06.16-.17.3-.3.42l-.19.14c-.1.08-.22.12-.34.17h-.02l-.03.02h-.03c-.03.02-.05.03-.04.07.02.05.05.06.1.06h.02l.1-.02.11-.05c.03 0 .05-.02.08-.03-.02.1-.03.17-.06.25l-.02.04a5 5 0 0 1-.4.7c-.09.12-.2.22-.33.3-.09.06-.18.1-.28.15l-.05.02-.03.02-.04.01-.09.04h-.02l-.1.03c-.13.04-.27.08-.4.1h-.03l-.1.02-.14.02c-.15.02-.3 0-.44-.02h-.02a.49.49 0 0 1-.1-.05l-.14-.07a1.21 1.21 0 0 1-.1-.05l-.1-.08a.46.46 0 0 1-.18-.2 1.3 1.3 0 0 0-.06-.14l-.03-.04c-.05-.1-.12-.18-.2-.27l-.09-.1-.04-.05a5.23 5.23 0 0 0-.19-.2l-.05-.05c-.14-.14-.3-.26-.48-.36l-.05-.02c-.2-.13-.36-.33-.45-.56-.03-.06-.08-.09-.16-.09-.06 0-.13 0-.19-.03a.33.33 0 0 1-.1-.06v-.02c-.03 0-.04-.04-.05-.06-.1-.16-.2-.3-.28-.48l-.06-.14-.02-.06a.28.28 0 0 1-.02-.08v-.03l.02-.06a.33.33 0 0 1 .1-.1l.04-.04.1-.07c.25-.14.51-.24.8-.3l.02-.02h.28l.25-.03c.27-.01.53-.04.8-.07.27-.03.55-.11.8-.24l.08-.04.05-.02.31-.17.04-.03v.03l-.02.01c-.1.13-.24.22-.36.33a.65.65 0 0 0-.04.03l-.12.1c.15 0 .3 0 .43-.05.25-.07.48-.22.63-.44.08-.1.15-.22.2-.35.05.17.17.3.28.42l.02.02.02.03.04.04.04.03.03.02.01.02.4.28.23.17.34.2.1.03.27.1h.01l.18.04h.07l.04.02a.3.3 0 0 1 .05.04c.06.05.1.12.11.16v.02l-.03.04-.06.1v.03a.23.23 0 0 0 0 .2c.1-.11.2-.23.25-.37l.02-.06v-.06c.01-.02 0-.05 0-.07h.17c.02 0 .02.03.01.05 0 .07-.03.13-.05.18-.04.11-.1.22-.16.31-.08.12-.18.22-.34.23zm.2.33l-.07.36c0 .04 0 .07-.04.12v-.03.02a3.85 3.85 0 0 1-.07-.5c0-.05.03-.06.05-.07.04 0 .1-.06.12-.04v.01h.01c.04.03 0 .1 0 .13zm-2.59 2.58l-.2.02-.2-.03c-.03 0-.05-.03-.04-.06 0-.02.01-.02.03-.02H8.47c.02 0 .04 0 .04.03s0 .05-.05.06zm-3.24-1.56c.03-.14.02-.3.04-.44 0-.03.02-.02.04 0l.08.07v.01c.02.02.02.03.02.05l-.17.32zM4.5 2.78v.05l-.2.12h-.03l-.02-.02-.4-.45c0-.02-.03-.04 0-.06.13-.07.23-.2.37-.26.03-.01.04-.01.06.02.1.2.15.4.22.6zm-1.06-.91l.55-.21c.26-.1.5-.26.75-.4l.08-.03c.02-.02.04-.05.07-.03.03.02.02.05.02.1.01.04-.02.08-.06.1-.25.25-.5.47-.78.68-.1.09-.23.13-.35.2-.03 0-.04 0-.06-.03l-.25-.33c-.04-.04 0-.04.03-.05zM1.85 4.25c-.2-.61-.4-1.22-.57-1.85-.04-.14-.06-.3-.09-.44 0-.04.02-.07.05-.08.04-.02.04.02.06.04.27.38.46.8.68 1.2l.21.37c.02.02.03.04.06.03.04-.01.03-.04.03-.07-.03-.12-.1-.23-.14-.35a.13.13 0 0 1 0-.12c.1-.2.24-.38.35-.58.1-.18.23-.34.32-.52.05-.1.17-.11.25-.04.05.05.1.1.13.17.12.2.3.37.46.53l.37.35c.04.03.05.09.07.13v.04l-.04.02c-.1.09-.2.07-.32 0a2.3 2.3 0 0 1-.62-.46L3.1 2.6c-.09-.07-.1-.06-.13.03l-.1.3c-.02.03 0 .06.03.09s.05.07.1.06c.02 0 .03-.01.04-.04 0-.06.02-.11.04-.18.2.16.4.28.6.42l-.2.1-1.54.89c-.05.02-.06.03-.08-.03zm.18.4c-.02-.03 0-.05.02-.07L3.93 3.4c.03-.02.06 0 .1-.01.1-.02.2-.07.3-.12l.03-.02c.07-.15.22-.2.35-.27.3-.13.6-.26.87-.45.06-.05.12-.03.17 0 .04.03.07.1.05.16a.4.4 0 0 1-.1.2 5.99 5.99 0 0 0-1.1 1.6.56.56 0 0 1-.1.16c-.19.2-.39.35-.63.46a.12.12 0 0 0-.08.1l-.02.14c0 .1-.04.2-.14.28-.03.02-.03.06-.04.1l-.2.65v.05c-.04 0-.07 0-.1-.02l-1.08-.27c-.07 0-.07-.04-.04-.1.04-.2.1-.4.22-.56a.1.1 0 0 0 0-.11c-.14-.23-.25-.48-.36-.72zm-.67 2.67h-.03c-.03-.02-.04-.04-.04-.08L1.4 6.2v-.02l.01-.01.03-.02h.03l1.4.38 1.4.37c.05 0 .07.03.05.07l-.2.66c0 .03 0 .06-.04.06h-.02l-.75-.1-.49-.07-1.46-.2zm5.15 8.01c-.03.03-.03.09-.07.08a.45.45 0 0 1-.2-.06c-.07-.04-.02-.33-.02-.4 0-.08-.07-.17-.1-.26 0-.03.02-.04.04-.06l.2-.23c.04-.04.06-.1.03-.16-.06-.12-.05-.23 0-.35l.1-.3h.01c.07.1.14.17.18.25.11.21.27.37.48.48.1.05.2.12.3.14h.02c.01 0 .03 0 .02.01l-.02.01c-.13 0-.25.02-.37.05l-.19.04-.17.04c-.03 0-.04.02-.04.04 0 .03.02.05.05.05.07.02.13.02.2.02.1 0 .17 0 .26-.03.19-.03.38-.03.56 0-.3.05-.57.23-.85.35-.15.06-.26.17-.4.25l-.02.04zm.9.23h-.03l-.62-.16c.07-.06.12-.09.21-.06l.41.2h.02v.02h.01zm1.42-.26c-.16.13-.32.26-.46.4-.04.04-.07.04-.1.01a6.78 6.78 0 0 0-.8-.4l-.38-.1c.02-.03.04-.03.06-.04.27-.1.54-.19.8-.3.07-.04.14 0 .2 0 .1.01.2.01.3-.04h.04l.62.25-.28.22zm1.25-.88c-.08.1-.1.23-.06.35.05.15.02.25-.13.33a.17.17 0 0 1-.08.02c-.03 0-.04 0-.07-.02-.27-.18-.6-.25-.9-.36l-.13-.04c-.05 0-.05-.04-.04-.08 0-.03.02-.03.03-.03l.05.01c.34.1.7.16 1.03.3h.03c.03 0 .04-.03.03-.06 0-.08 0-.16-.1-.2a2.03 2.03 0 0 0-.82-.17c.17-.1.36-.16.52-.3a.73.73 0 0 0 .05-.05l.3-.35c0-.02.02-.04.03-.05h.01c.03.01.03.03.04.05l.22.54c.01.04.02.07 0 .1v.01zm1.28-7.3h-.03c-.03 0-.04 0-.06-.03l-.48-.85c-.02-.04-.03-.06.03-.07l3.08-.9.04-.02c0 .2-.02.37-.04.54l-.03.4c0 .04-.02.07-.07.09l-2.44.84zm-5.07 3.9c.3.03.58.1.86.13.04 0 .08 0 .12.02.08.05.13.13.16.21.05.13.07.27.07.41.01.11 0 .2-.1.28a.4.4 0 0 0-.14.2c.1 0 .2.02.28.11.04.06.1.11.16.16.13.12.33.1.42-.06l.13-.2c.06-.1.12-.2.24-.23.06-.03.03-.06.01-.09-.04-.05-.13-.06-.2 0-.12.06-.2.16-.28.26l-.08.08c-.04.03-.08.04-.12 0-.04-.04-.08-.09-.13-.12-.03-.04-.04-.06-.02-.1.05-.1.07-.2.06-.3-.02-.23-.06-.46-.22-.64l.01-.04c.18-.13.27-.3.3-.5 0-.07 0-.1-.05-.13-.05 0-.07.03-.1.07l-.14.21a.3.3 0 0 1-.3.11 13 13 0 0 0-1.25-.13h-.06c-.13.1-.27.2-.35.35h.05c.22-.06.44-.07.67-.06zm3.87.17l-.38.2c-.17.02-.35.05-.52.05a.5.5 0 0 1-.27-.1c-.05-.03-.1-.07-.1-.14h.07c.1.01.18.05.27.04.23 0 .44-.08.66-.15l.2-.08c.03 0 .04-.02.01-.05a.1.1 0 0 0-.1-.02c-.46.07-.9.05-1.36-.04-.13-.02-.27-.03-.32-.2a1.14 1.14 0 0 1-.04-.12c0-.04-.03-.09-.06-.13-.02-.02-.04-.03-.07-.02-.03 0-.03.03-.03.05 0 .08 0 .15.02.22 0 .08.03.16.08.23.1.12.21.2.37.24.11.02.11.03.12.14 0 .05.01.1.06.13.08.04.16.1.26.1.06 0 .13.01.18.05.07.05.15.06.23.07.06 0 .13 0 .2.02.03 0 .07 0 .1-.04.18-.14.35-.28.5-.44 0-.03-.04-.03-.08 0zm-1.43 1.4c0-.02-.03-.03-.05 0-.14.06-.3.07-.45.1-.06 0-.14-.02-.19.02-.1.12-.2.07-.3 0l-.03-.02c-.15-.08-.3-.1-.45 0a.24.24 0 0 1-.2.04c-.05 0-.1 0-.13.03l-.08.05c-.06.05-.06.06 0 .1.01.02.03.02.05.03a.5.5 0 0 0 .4-.06c.14-.07.26-.07.38.02.11.1.23.1.35.04.15-.07.3-.13.47-.16h.07c.07.07.14.03.2 0 .03 0 .04-.03.03-.06 0-.05-.04-.08-.07-.13zm-.63.46c-.17 0-.35.03-.5.1-.14.03-.29.06-.36.22-.04.1-.04.2-.07.28.02.07.02.14.06.2.01.02.02.04.05.04.03 0 .04-.03.05-.05.03-.06.03-.14.05-.2.04-.12.1-.2.2-.26l.46-.16c.15.02.31.02.45.1.01.02.03.02.05.02.05-.02.05-.03.02-.08a.52.52 0 0 0-.46-.2zm-1.2-1.59l.3-.04c.03 0 .07 0 .08-.03 0-.03-.03-.05-.06-.08l-.05-.02a.6.6 0 0 0-.32 0c-.2.03-.43.05-.64 0-.06-.02-.12-.02-.19-.03-.08.02-.17.04-.25.08-.06.03-.07.06-.02.1.04.02.07.04.1.02.14-.05.25-.02.36.07.11.1.24.11.38.06.08-.02.15-.07.22-.1a.23.23 0 0 1 .08-.03zm-1.87.2c0-.1-.02-.19-.1-.24a.3.3 0 0 1-.1-.15c-.03-.07-.03-.16-.1-.22 0-.02-.03-.05-.06-.04-.03.01-.07.03-.08.08-.03.16.04.32.2.4.08.04.13.1.17.17 0 .03.01.08.05.07.04 0 0-.06.02-.08v.01z"/></svg>