<?xml version="1.0" encoding="utf-8"?>
<!-- Generator: Adobe Illustrator 26.3.1, SVG Export Plug-In . SVG Version: 6.00 Build 0)  -->
<svg version="1.1" id="Layer_1" xmlns="http://www.w3.org/2000/svg" xmlns:xlink="http://www.w3.org/1999/xlink" x="0px" y="0px"
	 viewBox="0 0 64.2222214 63.9599609" style="enable-background:new 0 0 64.2222214 63.9599609;" xml:space="preserve">
<style type="text/css">
	.st0{opacity:0.698;fill:#006EAC;enable-background:new    ;}
	.st1{fill:#FFFFFF;}
</style>
<path class="st0" d="M10.4006958,20.5201817c-2.5894923,10.7223072,0.0448818,23.2877522,6.8499928,31.683485
	c6.8151245,8.4405975,17.7683697,13.2500839,27.3393917,11.1661758
	c9.5709419-2.0838852,18.1096916-11.1378174,18.6103249-19.5162506c0.5395241-8.3870277-6.7744179-17.8107853-13.7559624-26.4491863
	C42.4728699,8.8107557,36.1254578,0.1679226,28.809761,0.1057425C21.5040169,0.0882544,13.0001345,9.8426304,10.4006958,20.5201817z
	"/>
<path class="st0" d="M62.9653206,17.5296116c3.9146385,9.0154724-2.3484802,21.2234707-11.7189217,30.8230534
	S29.1368923,63.006134,19.3120136,60.1821823C9.5365229,57.3686142,2.8869462,48.6041412,0.7845535,38.347908
	c-2.1024013-10.2561722,0.5647981-20.1274834,6.4149947-26.2793159c5.8995786-6.1413932,14.2164154-3.8764095,25.6893406-3.2197418
	C44.3510399,9.5556841,59.0400238,8.5642691,62.9653206,17.5296116z"/>
<g>
	<path class="st1" d="M20.6588879,35.2441216c-0.1778412,0.0028038-0.3487339-0.0689735-0.471241-0.1979218
		c-0.1257935-0.1242752-0.1955528-0.2944221-0.1932087-0.4712372c-0.0012684-0.176609,0.068327-0.3463554,0.1932087-0.471241
		c0.121336-0.131176,0.2925663-0.2048073,0.471241-0.2026329c0.1783237-0.0004387,0.3488865,0.0729027,0.471241,0.2026329
		c0.1270638,0.1237984,0.1984825,0.2938385,0.1979198,0.471241c0.0016632,0.1776199-0.0699291,0.3480759-0.1979198,0.4712372
		C21.0066452,35.1737251,20.8363972,35.2452316,20.6588879,35.2441216z"/>
	<path class="st1" d="M30.0224361,35.1263123h-1.2346516l-4.4155216-6.8518372
		c-0.1099892-0.1688213-0.2016144-0.3489151-0.2733192-0.5372124H24.061245
		c0.0419617,0.3912086,0.0577049,0.7847881,0.047123,1.1781006v6.2109489h-1.0037422v-8.5907135h1.305336l4.2977123,6.7293129
		c0.1790714,0.2796021,0.295311,0.471241,0.3487186,0.574913h0.0235615
		c-0.0497246-0.4190407-0.0701942-0.8410378-0.0612621-1.2629242v-6.0413017h1.0037441V35.1263123z"/>
	<path class="st1" d="M36.8177223,35.1263123h-4.5663185v-8.5907135h4.3542595v0.9094944h-3.3269539v2.8557167h3.1007614v0.9047813
		h-3.1007614v2.9782391h3.5437279L36.8177223,35.1263123z"/>
	<path class="st1" d="M43.5611725,27.4450932h-2.4975739v7.6812191h-1.0037422v-7.6812191h-2.4692993v-0.9094944h5.9706154
		V27.4450932z"/>
	<path class="st1" d="M29.4805088,40.969696c-0.3402119,0.1647682-0.7154922,0.2440262-1.093277,0.2309074
		c-0.5078812,0.0228806-1.0009041-0.174675-1.3524609-0.5419273c-0.3462543-0.3875923-0.5286922-0.8943672-0.5089397-1.413723
		c-0.0256081-0.5681381,0.1801147-1.1223984,0.5702019-1.5362434c0.3804321-0.3897324,0.9070702-0.6017532,1.4514198-0.5843391
		c0.3222027-0.0110092,0.6431675,0.0451622,0.942482,0.1649361v0.4712372
		c-0.2881775-0.1595383-0.6131306-0.2407761-0.942482-0.2356186c-0.4201775-0.011837-0.824604,0.1602631-1.1074142,0.471241
		c-0.2938919,0.334816-0.4459934,0.7708359-0.4241161,1.2158012c-0.0220051,0.4215088,0.1198311,0.8352013,0.3958416,1.1545372
		c0.2679176,0.2880936,0.648344,0.4447403,1.0414429,0.4288292c0.361824,0.0094719,0.7191505-0.0818977,1.0320168-0.2638969
		L29.4805088,40.969696z"/>
	<path class="st1" d="M31.4078827,41.2006035c-0.3795547,0.0122833-0.7457638-0.1407318-1.0037422-0.4194069
		c-0.2576828-0.2875671-0.391468-0.6652145-0.3722801-1.0508652c-0.0237694-0.408123,0.1171207-0.8087311,0.3911304-1.1121292
		c0.2798233-0.2730942,0.6602554-0.4181023,1.0508652-0.4005508c0.3696594-0.0196877,0.7294521,0.1231995,0.9848919,0.3911285
		c0.2504616,0.3018417,0.3768082,0.6876144,0.3534317,1.0791435c0.0197716,0.3973541-0.1173058,0.7865753-0.3817062,1.0838509
		C32.1676445,41.0558472,31.7947159,41.2122345,31.4078827,41.2006035z M31.4408684,38.6229134
		c-0.2625942-0.0110512-0.5158958,0.0982513-0.6880112,0.2968864c-0.1813259,0.2334824-0.2717476,0.5248375-0.2544689,0.8199577
		c-0.0164585,0.2863426,0.074255,0.5685577,0.2544689,0.7916832c0.1738358,0.195755,0.4264393,0.3030205,0.6880112,0.2921677
		c0.256279,0.0151253,0.5051155-0.0892792,0.6738739-0.2827415c0.1713257-0.234108,0.2547455-0.5210686,0.2356186-0.8105354
		c0.0186348-0.2908783-0.064682-0.579155-0.2356186-0.8152466C31.9482822,38.7175179,31.6988583,38.6093788,31.4408684,38.6229134z"
		/>
	<path class="st1" d="M35.0128708,38.7642899c-0.1017838-0.0666809-0.2226295-0.0981331-0.3440018-0.0895348
		c-0.1927757,0.0070114-0.3694305,0.1094742-0.4712448,0.2733192c-0.140255,0.2220612-0.2077904,0.4823189-0.1932068,0.7445602
		v1.4419975h-0.471241v-2.8274422h0.471241v0.5890465l0,0c0.0518036-0.1822624,0.1548462-0.3458214,0.2968826-0.471241
		c0.1228981-0.1066589,0.2802391-0.1652412,0.4429665-0.1649323c0.0910912-0.004097,0.1821594,0.0086861,0.2686043,0.0376968
		V38.7642899z"/>
	<path class="st1" d="M37.7743416,39.8387146h-1.9933472c-0.0133743,0.2634354,0.0723648,0.5223351,0.2403336,0.7257118
		c0.1766663,0.1762009,0.4200516,0.2687569,0.6691589,0.2544708c0.3194504-0.0031853,0.6284027-0.1144753,0.8765068-0.315731
		v0.424118c-0.2913551,0.1920433-0.6363792,0.2861404-0.98489,0.2686081
		c-0.3560295,0.0179672-0.7015381-0.1236916-0.942482-0.3864174c-0.245327-0.3060112-0.3679581-0.692379-0.3440056-1.0838547
		c-0.0169373-0.3924332,0.1161728-0.7765999,0.3722801-1.0744286c0.2360229-0.272644,0.5820122-0.4248772,0.942482-0.4146919
		c0.3256416-0.0182419,0.6416931,0.1137352,0.8576584,0.3581429c0.2169762,0.2861214,0.3240013,0.6406441,0.30159,0.9990311
		L37.7743416,39.8387146z M37.3031006,39.4570084c0.0095596-0.2183571-0.0570755-0.4332504-0.1884956-0.6078987
		c-0.1306381-0.1475983-0.3215446-0.2274323-0.518364-0.2167702c-0.2050476-0.0025139-0.4017067,0.0812798-0.5419273,0.2309113
		c-0.1551018,0.1640778-0.2526817,0.3741188-0.2780304,0.5984726L37.3031006,39.4570084z"/>
</g>
<path class="st1" d="M45.4444389,17.9799805c0.3613701,0,0.6666718,0.3053017,0.6666718,0.6666718v26.6666565
	c0,0.3613739-0.3053017,0.6666718-0.6666718,0.6666718H18.7777805c-0.3613701,0-0.6666698-0.3052979-0.6666698-0.6666718V18.6466522
	c0-0.3613701,0.3052998-0.6666718,0.6666698-0.6666718H45.4444389 M45.4444389,15.9799805H18.7777805
	c-1.4666691,0-2.6666698,1.2000008-2.6666698,2.6666718v26.6666565c0,1.466671,1.2000008,2.6666718,2.6666698,2.6666718h26.6666584
	c1.466671,0,2.6666718-1.2000008,2.6666718-2.6666718V18.6466522
	C48.1111107,17.1799812,46.9111099,15.9799805,45.4444389,15.9799805L45.4444389,15.9799805z"/>
</svg>
