<svg width="64" height="64" viewBox="0 0 64 64" fill="none" xmlns="http://www.w3.org/2000/svg">
<path opacity="0.7" d="M61.7428 10.1803C66.2514 15.4466 63.2297 26.9194 59.4405 36.1824C55.6035 45.4923 50.999 52.5453 44.1881 56.1188C37.4253 59.7394 28.4082 59.8804 19.9666 56.7301C11.477 53.5798 3.56306 47.138 0.973031 38.7214C-1.617 30.3049 1.11692 19.9135 7.35218 14.2711C13.5874 8.62866 23.324 7.73528 34.2117 6.79488C45.0995 5.9015 57.1863 4.91408 61.7428 10.1803Z" fill="#16BCC7"/>
<path opacity="0.7" d="M42.4578 2.27209C50.9451 6.40813 55.9221 16.2964 58.4206 26.0457C60.8817 35.817 60.8045 45.4347 56.3344 52.4488C51.8269 59.485 42.889 63.9397 34.4723 63.9999C26.0332 64.0234 18.1527 59.6305 13.0445 53.6085C7.99617 47.6011 5.73514 39.9059 5.70685 30.9484C5.67857 21.991 7.80071 11.72 14.8606 5.77644C21.9579 -0.189137 33.9331 -1.84195 42.4578 2.27209Z" fill="#16BCC7"/>
<path d="M22.8076 18.565C23.4652 19.2225 23.7537 20.1094 23.6731 20.9682C25.9177 19.8528 28.7155 20.2302 30.5858 22.1005L31.2929 22.8076L29.8787 24.2218L29.1716 23.5147C27.6095 21.9526 25.0768 21.9526 23.5147 23.5147C21.9526 25.0768 21.9526 27.6095 23.5147 29.1716L31.2929 36.9497L29.8787 38.364L22.1005 30.5858C20.2302 28.7155 19.8528 25.9177 20.9682 23.6731C20.1094 23.7537 19.2225 23.4652 18.565 22.8076C17.3934 21.636 17.3934 19.7365 18.565 18.565C19.7365 17.3934 21.636 17.3934 22.8076 18.565Z" fill="white"/>
<path d="M41.1924 45.435C40.5348 44.7775 40.2463 43.8906 40.3269 43.0318C38.0823 44.1472 35.2845 43.7698 33.4142 41.8995L32.7071 41.1924L34.1213 39.7782L34.8284 40.4853C36.3905 42.0474 38.9232 42.0474 40.4853 40.4853C42.0474 38.9232 42.0474 36.3905 40.4853 34.8284L32.7071 27.0503L34.1213 25.636L41.8995 33.4142C43.7698 35.2845 44.1472 38.0823 43.0318 40.3269C43.8906 40.2463 44.7775 40.5348 45.435 41.1924C46.6066 42.364 46.6066 44.2635 45.435 45.435C44.2635 46.6066 42.364 46.6066 41.1924 45.435Z" fill="white"/>
<path d="M20.9682 40.3269C20.1094 40.2463 19.2225 40.5348 18.565 41.1924C17.3934 42.364 17.3934 44.2635 18.565 45.435C19.7365 46.6066 21.636 46.6066 22.8076 45.435C23.4652 44.7775 23.7537 43.8906 23.6731 43.0318C25.9177 44.1472 28.7155 43.7698 30.5858 41.8995L38.364 34.1213L36.9497 32.7071L29.1716 40.4853C27.6095 42.0474 25.0768 42.0474 23.5147 40.4853C21.9526 38.9232 21.9526 36.3905 23.5147 34.8284L24.2218 34.1213L22.8076 32.7071L22.1005 33.4142C20.2302 35.2845 19.8528 38.0823 20.9682 40.3269Z" fill="white"/>
<path d="M45.435 22.8076C44.7775 23.4652 43.8906 23.7537 43.0318 23.6731C44.1472 25.9177 43.7698 28.7155 41.8995 30.5858L41.1924 31.2929L39.7782 29.8787L40.4853 29.1716C42.0474 27.6095 42.0474 25.0768 40.4853 23.5147C38.9232 21.9526 36.3905 21.9526 34.8284 23.5147L27.0503 31.2929L25.636 29.8787L33.4142 22.1005C35.2845 20.2302 38.0823 19.8528 40.3269 20.9682C40.2463 20.1094 40.5348 19.2225 41.1924 18.565C42.364 17.3934 44.2635 17.3934 45.435 18.565C46.6066 19.7365 46.6066 21.636 45.435 22.8076Z" fill="white"/>
</svg>
