<svg xmlns="http://www.w3.org/2000/svg" width="64" height="64" fill="none" viewBox="0 0 64 64"><path fill="#FF0900" fill-opacity=".5" d="M55.26 17.23C49.44 7.6 41.84.73 33.32.05c-8.56-.63-18.05 5.1-24.93 15.33C1.53 25.69-2.74 40.43 2.03 48.66c4.77 8.22 18.49 9.87 31.22 9.2 12.76-.56 24.52-3.53 28.3-11.13 3.78-7.6-.38-19.9-6.29-29.5Z"/><path fill="#FF0900" fill-opacity=".5" d="M1.98 21.96c-4.35 7.37-1.01 20.31 5 28.61C13 58.93 21.7 62.7 32.01 63.73c10.36 1.04 22.29-.7 28-8.9 5.71-8.13 5.16-22.71-.8-31.06C53.18 15.4 41.8 13.23 30.07 13c-11.72-.16-23.7 1.64-28.1 8.95Z"/><path fill="#fff" fill-rule="evenodd" d="m22.95 18.07-6.7 3.85a.53.53 0 0 0-.25.45v21.21c0 .19.1.36.26.45l12.9 7.42c.15.1.35.1.5 0l12.89-7.42c.16-.09.26-.26.26-.45v-6.77l5.93-3.41a.52.52 0 0 0 .26-.45v-7.07c0-.18-.1-.36-.26-.45l-6.67-3.87a.52.52 0 0 0-.52 0l-6.71 3.87a.53.53 0 0 0-.26.45v6.77l-4.16 2.4V22.37c0-.18-.1-.35-.26-.45l-6.7-3.85a.52.52 0 0 0-.5 0Zm24.02 14.58v-5.3l-4.16 2.4v5.3l4.16-2.4Zm-6.2 10.64v-5.32l-10.35 5.91v5.37l10.35-5.96Zm-22.74 0V23.84l4.16 2.4v13.84c0 .18.1.36.26.45l5.94 3.36v5.36l-10.36-5.96Zm.52-20.92 4.66-2.68 4.66 2.68-4.66 2.68-4.66-2.68Zm9.84 13.85V23.84l-4.16 2.4V38.6l4.16-2.4Zm8.74-10.34 4.66-2.69 4.66 2.69-4.66 2.68-4.66-2.68Zm3.64 3.86-4.16-2.4v5.31l4.16 2.4v-5.3ZM24.75 40.08l10.85-6.25 4.65 2.68-10.85 6.2-4.65-2.63Z" clip-rule="evenodd"/></svg>
