<svg width="64" height="65" viewBox="0 0 64 65" fill="none" xmlns="http://www.w3.org/2000/svg">
<path opacity="0.9" d="M56.2226 24.2439C60.5809 35.1238 61.3951 45.1513 57.4678 52.2709C53.4926 59.4405 44.8238 63.7022 34.9097 64.4543C24.9478 65.1562 13.8364 62.3485 8.2328 54.2262C2.62921 46.1039 2.58131 32.5668 8.13701 20.985C13.7406 9.35303 24.8999 -0.373678 34.4787 0.629075C44.0096 1.63183 51.8642 13.364 56.2226 24.2439Z" fill="#3E863D"/>
<path d="M59.6601 45.2674C65.2665 35.4583 65.4962 22.8467 60.0277 15.6142C54.5592 8.33649 43.3464 6.34756 31.674 6.03114C19.9557 5.75992 7.77789 7.16122 2.7689 14.1677C-2.2401 21.1742 -0.0343033 33.7858 6.03164 43.9113C12.1435 54.082 22.1615 61.7213 32.6391 61.9925C43.1166 62.2637 54.0996 55.1217 59.6601 45.2674Z" fill="#8AE662" fill-opacity="0.5"/>
<path fill-rule="evenodd" clip-rule="evenodd" d="M18.7423 24.4379C18.2672 24.7059 18 25.2122 18 25.7483V40.2517C18 40.7878 18.2969 41.2941 18.7423 41.5621L31.2428 48.799C31.7179 49.067 32.2821 49.067 32.7572 48.799L45.2577 41.5621C45.7328 41.2941 46 40.7878 46 40.2517V25.7483C46 25.2122 45.7031 24.7059 45.2577 24.4379L32.7572 17.201C32.2821 16.933 31.7179 16.933 31.2428 17.201L18.7423 24.4379ZM20.8744 25.5146L32.8338 46.4436L43.1256 40.4854L31.1662 19.5564L20.8744 25.5146ZM33.784 20.1065L40 30.9845L43.1257 25.5146L33.784 20.1065ZM41.1518 33L44 37.9844V28.0156L41.1518 33ZM30.216 45.8935L24 35.0156L20.8744 40.4855L30.216 45.8935ZM22.8483 33L20 28.0156V37.9845L22.8483 33Z" fill="white"/>
</svg>
