<svg width="65" height="65" viewBox="0 0 65 65" fill="none" xmlns="http://www.w3.org/2000/svg">
<path d="M58.2896 20.6975C63.2037 30.6472 64.9024 40.9002 60.959 49.0297C56.9549 57.1593 47.1872 63.1048 35.0535 64.5002C22.8592 65.8349 8.35938 62.6801 4.05192 54.3686C-0.255547 46.057 5.6293 32.7099 12.9095 21.3649C20.1291 9.95922 28.8047 0.616264 37.1163 0.798269C45.4278 0.980275 53.4361 10.6872 58.2896 20.6975Z" fill="#87DD31" fill-opacity="0.7"/>
<path d="M62.5306 17.8815C66.878 24.7059 63.5416 36.6866 57.526 44.3704C51.5104 52.1048 42.8156 55.5928 32.5031 56.5533C22.14 57.5138 10.2099 55.8961 4.4976 48.3134C-1.21471 40.7813 -0.658648 27.284 5.30642 19.5497C11.322 11.8153 22.6961 9.79325 34.424 9.59104C46.1519 9.43939 58.1326 11.1076 62.5306 17.8815Z" fill="#87DD31" fill-opacity="0.7"/>
<path fill-rule="evenodd" clip-rule="evenodd" d="M37.4367 23.4311C37.6748 22.6376 37.2245 21.8014 36.431 21.5634C35.6375 21.3253 34.8013 21.7756 34.5633 22.5691L28.5633 42.5694C28.3252 43.3629 28.7755 44.1991 29.569 44.4372C30.3625 44.6752 31.1987 44.2249 31.4367 43.4314L37.4367 23.4311ZM25.9 23.8001C25.2373 23.303 24.2971 23.4373 23.8 24.1001L17.8 32.1002C17.4 32.6335 17.4 33.3669 17.8 33.9002L23.8 41.9003C24.2971 42.5631 25.2373 42.6974 25.9 42.2003C26.5627 41.7033 26.6971 40.7631 26.2 40.1003L20.875 33.0002L26.2 25.9001C26.6971 25.2373 26.5627 24.2971 25.9 23.8001ZM40.1002 23.8001C40.7629 23.303 41.7031 23.4373 42.2002 24.1001L48.2002 32.1002C48.6002 32.6335 48.6002 33.3669 48.2002 33.9002L42.2002 41.9003C41.7031 42.5631 40.7629 42.6974 40.1002 42.2003C39.4374 41.7033 39.3031 40.7631 39.8002 40.1003L45.1252 33.0002L39.8002 25.9001C39.3031 25.2373 39.4374 24.2971 40.1002 23.8001Z" fill="white"/>
</svg>
