<svg width="65" height="65" viewBox="0 0 65 65" fill="none" xmlns="http://www.w3.org/2000/svg">
<path d="M7.45341 15.5313C1.8686 25.4192 1.68549 38.2368 7.22453 47.8957C12.7636 57.6005 23.9332 64.1466 35.1944 64.1924C46.4555 64.2382 57.854 57.8294 60.5091 49.7726C63.21 41.7158 57.2132 32.0568 51.5368 22.1232C45.8604 12.2353 40.4587 2.07282 32.2646 0.424844C24.0705 -1.17736 13.0382 5.68922 7.45341 15.5313Z" fill="#B60700" fill-opacity="0.58"/>
<path d="M5.55194 21.1044C-0.215408 31.5984 -1.21277 44.3473 4.03422 52.066C9.32457 59.828 20.8159 62.6033 31.8736 62.2998C42.8879 62.0396 53.4253 58.7006 59.3661 50.5482C65.2635 42.4393 66.5644 29.5169 61.3174 19.3265C56.0271 9.09272 44.1888 1.59083 33.001 1.98111C21.8566 2.37138 11.3193 10.6104 5.55194 21.1044Z" fill="#C60700" fill-opacity="0.5"/>
<path fill-rule="evenodd" clip-rule="evenodd" d="M33.2516 18.0703C33.3688 18.0238 33.4939 18 33.6202 18H39.0775C39.1767 18 39.2739 18.0147 39.3664 18.0425L45.3088 19.7587C45.5331 19.8234 45.727 19.9644 45.8566 20.1569L48.8333 24.578C49.0092 24.8392 49.0484 25.168 48.9388 25.4626L47.2024 30.1293C47.2014 30.132 47.2004 30.1347 47.1994 30.1373L41.4998 45.3501C41.4851 45.3904 41.4678 45.4299 41.4477 45.4684C41.4394 45.4843 41.4307 45.4999 41.4216 45.5153C41.3913 45.5665 41.3565 45.6145 41.3179 45.6589C41.1763 45.8219 40.9865 45.932 40.7801 45.9772C40.6944 45.996 40.6058 46.0036 40.5166 45.9992C40.4992 45.9984 40.4819 45.997 40.4646 45.9953C40.4201 45.9908 40.376 45.9833 40.3329 45.9729L21.2511 41.5562C20.9896 41.499 20.7595 41.3387 20.6175 41.1077L17.1447 35.4585C16.9891 35.2054 16.9572 34.8963 17.0578 34.6172L19.5361 27.7463C19.5458 27.7189 19.5567 27.6919 19.5688 27.6655C19.6144 27.5654 19.6757 27.4756 19.749 27.3983L25.4481 21.2647C25.5485 21.1566 25.6721 21.0722 25.8098 21.0177L33.2516 18.0703ZM37.7535 28.8018L44.9507 30.4897L40.3264 42.8323L37.1135 37.8837L37.7535 28.8018ZM39.6298 21.6718L38.5328 19.9649H33.8112L26.756 22.7592L21.4931 28.4234L21.6496 30.592L27.2305 31.0013L36.1718 26.8077L39.6298 21.6718ZM45.6443 28.6329L46.9022 25.2522L44.406 21.5448L41.3293 20.6562L41.6555 21.1637C41.864 21.4881 41.8595 21.9025 41.6441 22.2225C41.6426 22.2248 41.6411 22.227 41.6396 22.2293L38.462 26.9486L45.6443 28.6329ZM29.3693 32.1724L35.7371 29.1858L35.2344 36.3205L29.3693 32.1724ZM25.6214 32.8581L19.9444 32.4566L19.0858 34.837L21.5147 38.788L25.6214 32.8581ZM35.3691 38.8305L27.665 33.3818L23.1043 39.9673L38.4068 43.5092L35.3691 38.8305Z" fill="white"/>
</svg>
