<svg width="65" height="65" viewBox="0 0 65 65" fill="none" xmlns="http://www.w3.org/2000/svg">
<path opacity="0.7" d="M7.45341 15.5313C1.8686 25.4192 1.68549 38.2368 7.22453 47.8957C12.7636 57.6005 23.9332 64.1466 35.1944 64.1924C46.4555 64.2382 57.854 57.8294 60.5091 49.7726C63.21 41.7158 57.2132 32.0568 51.5368 22.1232C45.8604 12.2353 40.4587 2.07282 32.2646 0.424844C24.0705 -1.17736 13.0382 5.68922 7.45341 15.5313Z" fill="#006EAC"/>
<path opacity="0.7" d="M5.55194 21.1044C-0.215408 31.5984 -1.21277 44.3473 4.03422 52.066C9.32457 59.828 20.8159 62.6033 31.8736 62.2998C42.8879 62.0396 53.4253 58.7006 59.3661 50.5482C65.2635 42.4393 66.5644 29.5169 61.3174 19.3265C56.0271 9.09272 44.1888 1.59083 33.001 1.98111C21.8566 2.37138 11.3193 10.6104 5.55194 21.1044Z" fill="#006EAC"/>
<path fill-rule="evenodd" clip-rule="evenodd" d="M33 48.0005C41.8366 48.0005 49 40.837 49 32.0005C49 23.1639 41.8366 16.0005 33 16.0005C24.1634 16.0005 17 23.1639 17 32.0005C17 40.837 24.1634 48.0005 33 48.0005ZM20.2706 26.3236C19.4956 28.0674 19.0694 29.9855 19.0694 32.0005C19.0694 37.5224 22.2663 42.2886 26.9163 44.5361L20.2706 26.3236ZM29.0669 45.3692C30.3069 45.7374 31.6244 45.9311 33 45.9311C34.6275 45.9311 36.1775 45.6599 37.6306 45.1561C37.5919 45.098 37.5531 45.0399 37.5338 44.9624L33.2519 33.2211L29.0669 45.3692ZM36.5069 25.3355C36.5069 25.3355 35.7512 25.413 34.9181 25.4711L39.9556 40.4674L41.3506 35.8174C41.4034 35.6471 41.4552 35.4812 41.5056 35.3193C42.0294 33.6394 42.4163 32.3987 42.4163 31.303C42.4163 29.5786 41.7963 28.3967 41.2731 27.4667C41.2194 27.3796 41.166 27.2936 41.1132 27.2085C40.4612 26.1581 39.8975 25.2498 39.8975 24.1924C39.8975 22.9136 40.8663 21.7124 42.2419 21.7124C42.2709 21.7124 42.3 21.7172 42.3291 21.7221C42.3581 21.7269 42.3872 21.7317 42.4163 21.7317C39.9362 19.4649 36.6231 18.0699 33 18.0699C28.1369 18.0699 23.855 20.5692 21.3556 24.3474C21.685 24.3667 21.995 24.3667 22.2469 24.3667C23.7194 24.3667 25.9669 24.1924 25.9669 24.1924C26.7225 24.1342 26.8 25.2386 26.0638 25.3355C26.0638 25.3355 25.3081 25.413 24.4556 25.4711L29.5512 40.5642L32.5931 31.4192L30.4037 25.4711C29.6675 25.4324 28.9506 25.3355 28.9506 25.3355C28.195 25.2967 28.2919 24.1342 29.0281 24.1924C29.0281 24.1924 31.3144 24.3667 32.69 24.3667C34.1431 24.3667 36.41 24.1924 36.41 24.1924C37.1656 24.1342 37.2625 25.2386 36.5069 25.3355ZM46.9306 32.0005C46.9306 29.5786 46.3106 27.2924 45.2256 25.3161C45.2838 25.7617 45.3225 26.2267 45.3225 26.7499C45.3225 28.1642 45.0513 29.753 44.2569 31.7486L39.9944 44.0517C44.1406 41.6299 46.9306 37.1349 46.9306 32.0005Z" fill="white"/>
</svg>

